<svg width="32" height="32" viewBox="0 0 32 32" fill="none" xmlns="http://www.w3.org/2000/svg">
<path d="M24 9.6001C24 9.04005 23.9996 8.75981 23.8906 8.5459C23.7948 8.35774 23.6423 8.20487 23.4542 8.10899C23.2403 8 22.9597 8 22.3996 8H9.59961C9.03956 8 8.75981 8 8.5459 8.10899C8.35774 8.20487 8.20487 8.35774 8.10899 8.5459C8 8.75981 8 9.04005 8 9.6001V10.3374C8 10.5819 8 10.7043 8.02763 10.8194C8.05213 10.9215 8.09263 11.0189 8.14746 11.1084C8.20928 11.2093 8.29591 11.2959 8.46875 11.4688L13.5315 16.5315C13.7044 16.7044 13.7904 16.7904 13.8523 16.8914C13.9071 16.9808 13.9482 17.0786 13.9727 17.1807C14 17.2946 14 17.4155 14 17.6552V22.411C14 23.2682 14 23.6971 14.1805 23.9552C14.3382 24.1806 14.5814 24.331 14.8535 24.3712C15.1651 24.4172 15.5487 24.2257 16.3154 23.8424L17.1154 23.4424C17.4365 23.2819 17.5966 23.2013 17.7139 23.0815C17.8176 22.9756 17.897 22.8485 17.9453 22.7084C18 22.5499 18 22.37 18 22.011V17.6626C18 17.418 18 17.2958 18.0276 17.1807C18.0521 17.0786 18.0926 16.9808 18.1475 16.8914C18.2089 16.7911 18.2947 16.7053 18.4653 16.5347L18.4688 16.5315L23.5315 11.4688C23.7044 11.2958 23.7904 11.2093 23.8523 11.1084C23.9071 11.0189 23.9482 10.9215 23.9727 10.8194C24 10.7055 24 10.5844 24 10.3448V9.6001Z" stroke="black" stroke-width="2" stroke-linecap="round" stroke-linejoin="round"/>
</svg>
