<svg xmlns="http://www.w3.org/2000/svg">
    <!-- LOGO ICON -->
    <symbol viewBox="0 0 150 35" fill="none" id="icon-logo">
        <g clip-path="url(#clip0_1_1069)">
        <path d="M17.15 0C7.67748 0 0 7.67746 0 17.15C0 26.0201 6.73548 33.3175 15.3711 34.207C14.8496 29.9134 15.0436 26.4001 15.7067 23.5135C15.3347 21.7225 14.4898 19.0703 12.5734 17.1864C12.5734 17.1864 13.8348 19.0784 14.5181 21.6214C14.5181 21.6255 14.5221 21.6295 14.5221 21.6335C14.5949 21.9044 14.6596 22.1793 14.7162 22.4623C14.7283 22.527 14.7404 22.5917 14.7526 22.6604C14.8051 22.9515 14.8536 23.2426 14.886 23.5418C5.19513 22.3532 3.12921 13.6569 3.35561 10.3781C13.665 10.9482 15.7754 17.8292 16.0827 22.0985C19.4585 11.0412 30.1843 10.4024 31.0697 10.3781C31.4538 18.8763 25.1509 25.5026 17.6149 26.0807C17.6635 25.8503 17.7201 25.6198 17.7767 25.3934C17.7928 25.3247 17.813 25.26 17.8333 25.1913C17.8777 25.0296 17.9222 24.8679 17.9748 24.7061C17.995 24.6374 18.0192 24.5646 18.0394 24.4959C18.096 24.318 18.1567 24.1442 18.2173 23.9663C18.2335 23.9259 18.2456 23.8854 18.2618 23.845C18.3386 23.6348 18.4195 23.4326 18.5003 23.2305C18.5084 23.2143 18.5125 23.1941 18.5205 23.1779C18.5205 23.1779 18.5205 23.1779 18.5246 23.1779C20.4571 18.5043 24.0229 15.4439 24.0229 15.4439C17.0247 19.4868 15.8441 29.9983 15.6582 34.2231C16.1514 34.2676 16.6446 34.2999 17.15 34.2999C26.6225 34.2999 34.3 26.6225 34.3 17.15C34.3 7.67746 26.6225 0 17.15 0Z" fill="#46A358"/>
        <path d="M46.7037 10.7454C48.9718 10.7454 50.8235 11.7197 52.0242 13.4986L49.7764 15.4109C48.9718 14.287 47.9975 13.7048 46.6471 13.7048C44.5691 13.7048 43.2753 15.0713 43.2753 17.1534C43.2753 19.2719 44.6418 20.695 46.8372 20.695C48.0177 20.695 48.9556 20.2826 49.554 19.5912V19.0091H46.6673V16.2356H52.7762V20.133C52.194 21.1639 51.3693 21.9887 50.3019 22.6234C49.2346 23.242 48.0339 23.5614 46.7037 23.5614C42.9923 23.618 39.9237 20.7313 39.9763 17.1534C39.9197 13.5956 42.9923 10.6888 46.7037 10.7454Z" fill="#46A358"/>
        <path d="M61.9576 23.3316L59.168 19.4908H57.8379V23.3316H54.6157V10.9684H59.4672C62.2204 10.9684 64.2459 12.6543 64.2459 15.2215C64.2459 16.7376 63.5141 17.995 62.2972 18.7429L65.5558 23.3316H61.9576ZM57.8338 16.681H59.4833C60.3809 16.681 60.963 16.0988 60.963 15.2215C60.963 14.3442 60.3809 13.7782 59.4833 13.7782H57.8338V16.681Z" fill="#46A358"/>
        <path d="M66.8333 10.9684H75.4124V13.8712H70.0555V15.5773H73.876V18.2739H70.0555V20.4288H75.6388V23.3316H66.8333V10.9684Z" fill="#46A358"/>
        <path d="M77.6441 10.9684H86.2231V13.8712H80.8663V15.5773H84.6868V18.2739H80.8663V20.4288H86.4495V23.3316H77.6441V10.9684Z" fill="#46A358"/>
        <path d="M99.4192 10.9683V23.5579H98.3882L91.681 17.057V23.3315H88.4588V10.7419H89.4897L96.197 17.1499V10.9683H99.4192Z" fill="#46A358"/>
        <path d="M103.264 19.135C103.996 20.1094 104.764 20.7279 106.017 20.7279C106.862 20.7279 107.291 20.4288 107.291 19.8264C107.291 19.2846 107.008 19.1148 106.033 18.6822L104.76 18.1203C102.718 17.2187 101.631 16.0584 101.631 14.3927C101.631 12.2014 103.43 10.7379 105.957 10.7379C107.998 10.7379 109.442 11.7123 110.19 13.2283L108.035 14.8778C107.436 13.9803 106.874 13.5679 105.993 13.5679C105.318 13.5679 104.889 13.8307 104.889 14.3563C104.889 14.8051 105.152 15.0517 105.957 15.367L107.38 15.9654C109.535 16.867 110.545 17.9505 110.545 19.6929C110.545 22.0904 108.576 23.5539 106.009 23.5539C103.782 23.5539 101.982 22.4866 101.081 20.7805L103.264 19.135Z" fill="#46A358"/>
        <path d="M112.393 10.9684H115.615V15.4843H120.131V10.9684H123.353V23.3316H120.131V18.3871H115.615V23.3316H112.393V10.9684Z" fill="#46A358"/>
        <path d="M131.843 10.7419C135.441 10.6651 138.607 13.6084 138.53 17.1499C138.603 20.7279 135.441 23.6145 131.843 23.5579C128.229 23.6145 125.116 20.7279 125.193 17.1499C125.116 13.6084 128.229 10.6692 131.843 10.7419ZM131.859 13.7014C129.874 13.7014 128.488 15.1083 128.488 17.1499C128.488 18.1809 128.807 19.0218 129.426 19.6606C130.044 20.2791 130.869 20.5985 131.859 20.5985C133.772 20.5985 135.231 19.2118 135.231 17.1499C135.235 15.1083 133.772 13.7014 131.859 13.7014Z" fill="#46A358"/>
        <path d="M140.374 10.9684H145.226C147.979 10.9684 150.004 12.6543 150.004 15.2215C150.004 17.7524 147.926 19.4908 145.226 19.4908H143.596V23.3316H140.374V10.9684ZM145.242 16.681C146.139 16.681 146.721 16.0988 146.721 15.2215C146.721 14.3442 146.139 13.7782 145.242 13.7782H143.592V16.681H145.242Z" fill="#46A358"/>
        </g>
        <defs>
        <clipPath id="clip0_1_1069">
        <rect width="150" height="34.2999" fill="white"/>
        </clipPath>
        </defs>
    </symbol>
    <symbol viewBox="0 0 18 18" fill="none" id="icon-login">
        <path d="M17.1601 9.1006H7.12598" stroke="white" stroke-width="1.5" stroke-linecap="round" stroke-linejoin="round"/>
        <path d="M14.7212 6.67059L17.1612 9.10059L14.7212 11.5306" stroke="white" stroke-width="1.5" stroke-linecap="round" stroke-linejoin="round"/>
        <path d="M12.6342 5.35826C12.3592 2.37493 11.2425 1.2916 6.80082 1.2916C0.883322 1.2916 0.883322 3.2166 0.883322 8.99993C0.883322 14.7833 0.883322 16.7083 6.80082 16.7083C11.2425 16.7083 12.3592 15.6249 12.6342 12.6416" stroke="white" stroke-width="1.5" stroke-linecap="round" stroke-linejoin="round"/>
    </symbol>
    <symbol id="icon-header-burger-menu">
        <path fill-rule="evenodd" clip-rule="evenodd" d="M2 7C2 6.44772 2.49746 6 3.11111 6H20.8889C21.5025 6 22 6.44772 22 7C22 7.55228 21.5025 8 20.8889 8H3.11111C2.49746 8 2 7.55228 2 7Z" fill="#3D3D3D"/>
        <path fill-rule="evenodd" clip-rule="evenodd" d="M2 12C2 11.4477 2.44772 11 3 11H13C13.5523 11 14 11.4477 14 12C14 12.5523 13.5523 13 13 13H3C2.44772 13 2 12.5523 2 12Z" fill="#3D3D3D"/>
        <path fill-rule="evenodd" clip-rule="evenodd" d="M2 17C2 16.4477 2.49746 16 3.11111 16H20.8889C21.5025 16 22 16.4477 22 17C22 17.5523 21.5025 18 20.8889 18H3.11111C2.49746 18 2 17.5523 2 17Z" fill="#3D3D3D"/>
    </symbol>
    <symbol viewBox="0 0 7 10" id="icon-dropdown-menu-arrow">
        <path d="M1.14228 0.945805C0.909014 0.730097 0.908201 0.379612 1.14046 0.162973C1.35161 -0.0339699 1.68269 -0.0524979 1.9164 0.107825L1.98337 0.161288L6.79132 4.60737C7.00401 4.80406 7.02336 5.11265 6.84935 5.32969L6.79135 5.39186L1.9834 9.83868C1.75016 10.0544 1.37278 10.0537 1.1405 9.83706C0.929333 9.64013 0.910782 9.33257 1.08439 9.1162L1.14224 9.05423L5.52584 4.99941L1.14228 0.945805Z"/>
    </symbol>
    <symbol viewBox="0 0 12 8" fill="none" id="icon-sort-arrow-down">
        <path d="M10.6667 1.66669L6.00004 6.33335L1.33337 1.66669" stroke="#3D3D3D" stroke-width="1.5" stroke-linecap="round" stroke-linejoin="round"/>
    </symbol>
    <symbol viewBox="0 0 8 12" fill="none" id="icon-arrow-next-page">
        <path d="M1.375 0.75C1.375 0.75 6.625 3.858 6.625 6C6.625 8.14125 1.375 11.25 1.375 11.25" stroke-linecap="round" stroke-linejoin="round"/>
    </symbol>
    <symbol id="icon-sort">
        <g clip-path="url(#clip0_8_249)">
        <path d="M8 10H24M14 16H24M20 22H24" stroke="black" stroke-width="2" stroke-linecap="round" stroke-linejoin="round"/>
        </g>
        <defs>
        <clipPath id="clip0_8_249">
        <rect width="24" height="24" fill="white" transform="translate(4 4)"/>
        </clipPath>
        </defs>
    </symbol>
    <symbol id="icon-filter">
        <path d="M24 9.6001C24 9.04005 23.9996 8.75981 23.8906 8.5459C23.7948 8.35774 23.6423 8.20487 23.4542 8.10899C23.2403 8 22.9597 8 22.3996 8H9.59961C9.03956 8 8.75981 8 8.5459 8.10899C8.35774 8.20487 8.20487 8.35774 8.10899 8.5459C8 8.75981 8 9.04005 8 9.6001V10.3374C8 10.5819 8 10.7043 8.02763 10.8194C8.05213 10.9215 8.09263 11.0189 8.14746 11.1084C8.20928 11.2093 8.29591 11.2959 8.46875 11.4688L13.5315 16.5315C13.7044 16.7044 13.7904 16.7904 13.8523 16.8914C13.9071 16.9808 13.9482 17.0786 13.9727 17.1807C14 17.2946 14 17.4155 14 17.6552V22.411C14 23.2682 14 23.6971 14.1805 23.9552C14.3382 24.1806 14.5814 24.331 14.8535 24.3712C15.1651 24.4172 15.5487 24.2257 16.3154 23.8424L17.1154 23.4424C17.4365 23.2819 17.5966 23.2013 17.7139 23.0815C17.8176 22.9756 17.897 22.8485 17.9453 22.7084C18 22.5499 18 22.37 18 22.011V17.6626C18 17.418 18 17.2958 18.0276 17.1807C18.0521 17.0786 18.0926 16.9808 18.1475 16.8914C18.2089 16.7911 18.2947 16.7053 18.4653 16.5347L18.4688 16.5315L23.5315 11.4688C23.7044 11.2958 23.7904 11.2093 23.8523 11.1084C23.9071 11.0189 23.9482 10.9215 23.9727 10.8194C24 10.7055 24 10.5844 24 10.3448V9.6001Z" stroke="black" stroke-width="2" stroke-linecap="round" stroke-linejoin="round"/>
    </symbol>
    <!-- FETURE BAR ICONS -->
    <symbol viewBox="0 0 20 20" id="icon-shop">
        <g clip-path="url(#clip0_2_1949)">
        <path d="M14.294 16.8745H8.24077C5.65655 16.8745 3.55412 14.7721 3.55412 12.1879V7.38405C3.55412 4.98175 2.35676 2.75813 0.351225 1.4358C-0.00894369 1.19834 -0.108379 0.713895 0.129078 0.353726C0.366535 -0.00648163 0.850939 -0.105956 1.21119 0.131579C2.35606 0.886442 3.28487 1.88204 3.94905 3.02832C4.09258 3.18911 5.24995 4.41584 7.14726 4.41584H16.142C18.596 4.36995 20.5168 6.83267 19.8752 9.20138L18.8397 13.3284C18.3159 15.4163 16.4466 16.8745 14.294 16.8745ZM4.91926 5.53677C5.04912 6.1367 5.11634 6.7553 5.11634 7.38405V12.1879C5.11634 13.9107 6.51796 15.3123 8.24077 15.3123H14.294C15.7291 15.3123 16.9752 14.3401 17.3245 12.9482L18.3599 8.82121C18.7412 7.41373 17.5997 5.95084 16.142 5.97806H7.14722C6.28913 5.97806 5.54224 5.79305 4.91926 5.53677ZM7.85021 19.0226C7.85021 18.4833 7.41307 18.0462 6.87383 18.0462C5.57828 18.0978 5.57942 19.9479 6.87383 19.999C7.41307 19.999 7.85021 19.5618 7.85021 19.0226ZM15.6222 19.0226C15.6222 18.4833 15.1851 18.0462 14.6459 18.0462C13.3503 18.0978 13.3514 19.9479 14.6459 19.999C15.1851 19.999 15.6222 19.5618 15.6222 19.0226ZM16.9231 8.32138C16.9231 7.88998 16.5734 7.54027 16.142 7.54027H7.45966C6.42329 7.58152 6.42407 9.0616 7.45966 9.10249H16.142C16.5734 9.10249 16.9231 8.75279 16.9231 8.32138Z"/>
        </g>
        <defs>
            <clipPath id="clip0_2_1949">
            <rect width="20" height="20" fill="white"/>
            </clipPath>
        </defs>
    </symbol>
    <symbol viewBox="0 0 20 20" id="icon-heart">
        <path d="M10 18.8873C9.71527 18.8873 9.44077 18.7842 9.22684 18.5968C8.41888 17.8903 7.63992 17.2264 6.95267 16.6408L6.94916 16.6377C4.93423 14.9207 3.19427 13.4378 1.98364 11.9771C0.630341 10.3441 0 8.79578 0 7.10434C0 5.46097 0.563507 3.94485 1.58661 2.83508C2.62192 1.71219 4.04251 1.09375 5.58716 1.09375C6.74164 1.09375 7.79892 1.45874 8.72955 2.1785C9.19922 2.54181 9.62494 2.98645 10 3.5051C10.3752 2.98645 10.8008 2.54181 11.2706 2.1785C12.2012 1.45874 13.2585 1.09375 14.413 1.09375C15.9575 1.09375 17.3782 1.71219 18.4135 2.83508C19.4366 3.94485 20 5.46097 20 7.10434C20 8.79578 19.3698 10.3441 18.0165 11.9769C16.8059 13.4378 15.0661 14.9205 13.0515 16.6374C12.363 17.224 11.5828 17.8889 10.773 18.5971C10.5592 18.7842 10.2846 18.8873 10 18.8873ZM5.58716 2.26532C4.37363 2.26532 3.25882 2.74963 2.44781 3.62915C1.62476 4.52194 1.17142 5.75607 1.17142 7.10434C1.17142 8.52692 1.70013 9.79919 2.88559 11.2296C4.03137 12.6122 5.73563 14.0645 7.70889 15.7462L7.71255 15.7492C8.4024 16.3371 9.18442 17.0036 9.99832 17.7153C10.8171 17.0023 11.6003 16.3347 12.2916 15.7458C14.2647 14.0642 15.9688 12.6122 17.1146 11.2296C18.2999 9.79919 18.8286 8.52692 18.8286 7.10434C18.8286 5.75607 18.3752 4.52194 17.5522 3.62915C16.7413 2.74963 15.6264 2.26532 14.413 2.26532C13.524 2.26532 12.7078 2.54791 11.9872 3.10516C11.3449 3.60199 10.8975 4.23004 10.6352 4.66949C10.5003 4.89548 10.2629 5.03036 10 5.03036C9.73709 5.03036 9.49966 4.89548 9.36478 4.66949C9.10263 4.23004 8.65524 3.60199 8.01285 3.10516C7.29218 2.54791 6.47598 2.26532 5.58716 2.26532Z"/>
    </symbol>
    <symbol viewBox="0 0 20 20" id="icon-dandruff">
        <path d="M14.5656 16.0023C10.5704 19.1859 4.98549 18.3049 2.02729 14.6536C-0.827886 11.1285 -0.64932 6.04314 2.44811 2.82458C5.64856 -0.50074 10.6802 -0.944658 14.3277 1.78316C15.6345 2.76027 16.6104 4.00337 17.246 5.50807C17.8853 7.02151 18.0795 8.59614 17.8578 10.2201C17.6368 11.8365 16.9918 13.2769 15.9423 14.6212C16.0272 14.6767 16.1178 14.7167 16.1827 14.7816C17.3365 15.9305 18.4859 17.0836 19.6397 18.2325C19.9132 18.5047 20.0493 18.8218 19.9682 19.204C19.8071 19.9644 18.9018 20.2579 18.3211 19.7359C18.0489 19.4918 17.7985 19.2227 17.54 18.9642C16.5923 18.0171 15.6451 17.0693 14.6973 16.1221C14.658 16.0847 14.6168 16.0497 14.5656 16.0023ZM15.9529 8.98636C15.9629 5.12659 12.8468 2.00605 8.97825 2.00043C5.12035 1.99481 2.00669 5.09037 1.98983 8.94765C1.97297 12.8168 5.08289 15.9461 8.96326 15.9642C12.8055 15.9823 15.9429 12.8499 15.9529 8.98636Z"/>
    </symbol>
    <symbol id="icon-read-more-arrow">
        <path d="M0.666672 4.81714C0.666672 4.56401 0.854774 4.35481 1.09882 4.3217L1.16667 4.31714L11.1667 4.31714C11.4428 4.31714 11.6667 4.541 11.6667 4.81714C11.6667 5.07027 11.4786 5.27947 11.2345 5.31257L11.1667 5.31714L1.16667 5.31714C0.890529 5.31714 0.666672 5.09328 0.666672 4.81714Z"/>
        <path d="M6.78068 1.15517C6.585 0.960332 6.58431 0.64375 6.77915 0.448069C6.95628 0.270176 7.23402 0.25344 7.43008 0.398254L7.48626 0.446546L11.5196 4.46255C11.698 4.6402 11.7142 4.91895 11.5683 5.11499L11.5196 5.17114L7.48629 9.18781C7.29062 9.38267 6.97404 9.38201 6.77918 9.18635C6.60204 9.00847 6.58648 8.73066 6.73212 8.53522L6.78065 8.47924L10.458 4.81666L6.78068 1.15517Z"/>
    </symbol>
    <symbol id="icon-find-more-arrow">
        <path d="M14.8125 8.79419H3.5625" stroke-width="1.5" stroke-linecap="round" stroke-linejoin="round"/>
        <path d="M10.2747 4.27587C10.2747 4.27587 14.8122 6.72162 14.8122 8.79312C14.8122 10.8661 10.2747 13.3126 10.2747 13.3126" stroke-width="1.5" stroke-linecap="round" stroke-linejoin="round"/>
    </symbol>
    <!-- FOOTER ICONS -->
    <symbol id="icon-footer-message">
        <path d="M14.6208 7.51582C14.6208 7.51582 11.9457 10.7263 9.98917 10.7263C8.03345 10.7263 5.32835 7.51582 5.32835 7.51582" stroke-width="1.5" stroke-linecap="round" stroke-linejoin="round"/>
        <path fill-rule="evenodd" clip-rule="evenodd" d="M2.0434 9.97397C2.0434 4.27556 4.02752 2.37665 9.9799 2.37665C15.9323 2.37665 17.9164 4.27556 17.9164 9.97397C17.9164 15.6716 15.9323 17.5713 9.9799 17.5713C4.02752 17.5713 2.0434 15.6716 2.0434 9.97397Z" stroke-width="1.5" stroke-linecap="round" stroke-linejoin="round"/>
    </symbol>
    <symbol id="icon-footer-location">
        <path fill-rule="evenodd" clip-rule="evenodd" d="M12.092 8.92543C12.092 7.77437 11.1593 6.84167 10.0082 6.84167C8.85799 6.84167 7.92529 7.77437 7.92529 8.92543C7.92529 10.0756 8.85799 11.0083 10.0082 11.0083C11.1593 11.0083 12.092 10.0756 12.092 8.92543Z" stroke="#46A358" stroke-width="1.5" stroke-linecap="round" stroke-linejoin="round"/>
        <path fill-rule="evenodd" clip-rule="evenodd" d="M9.99959 17.5C7.58457 17.5 3.75 13.2989 3.75 8.8322C3.75 5.33539 6.54758 2.5 9.99959 2.5C13.4516 2.5 16.25 5.33539 16.25 8.8322C16.25 13.2989 12.4154 17.5 9.99959 17.5Z" stroke="#46A358" stroke-width="1.5" stroke-linecap="round" stroke-linejoin="round"/>
    </symbol>
    <symbol id="icon-footer-calling">
        <path d="M11.9604 2.29175C15.0446 2.63425 17.4813 5.06758 17.8279 8.15175" stroke-width="1.5" stroke-linecap="round" stroke-linejoin="round"/>
        <path d="M11.9604 5.24425C13.4363 5.53091 14.5896 6.68508 14.8771 8.16091" stroke-width="1.5" stroke-linecap="round" stroke-linejoin="round"/>
        <path fill-rule="evenodd" clip-rule="evenodd" d="M6.41709 13.5825C0.668773 7.83352 1.48617 5.20096 2.09214 4.35263C2.16999 4.21552 4.08875 1.34323 6.14551 3.02839C11.2507 7.23288 4.78761 6.63843 9.07452 10.9261C13.3623 15.2128 12.767 8.74996 16.9716 13.8541C18.6568 15.9117 15.7844 17.8303 15.6482 17.9073C14.7998 18.5141 12.1663 19.3315 6.41709 13.5825Z" stroke-width="1.5" stroke-linecap="round" stroke-linejoin="round"/>
    </symbol>
    <symbol id="icon-social-facebook">
        <path d="M2 5.33333H0V8H2V16H5.33333V8H7.73333L8 5.33333H5.33333V4.2C5.33333 3.6 5.46667 3.33333 6.06667 3.33333H8V0H5.46667C3.06667 0 2 1.06667 2 3.06667V5.33333Z" fill="#46A358" fill-opacity="0.6"/>
    </symbol>
    <symbol id="icon-social-instagram">
        <path d="M8 1.46667C10.1333 1.46667 10.4 1.46667 11.2667 1.53333C13.4667 1.6 14.4667 2.66667 14.5333 4.8C14.6 5.66667 14.6 5.86667 14.6 8C14.6 10.1333 14.6 10.4 14.5333 11.2C14.4667 13.3333 13.4 14.4 11.2667 14.4667C10.4 14.5333 10.2 14.5333 8 14.5333C5.86667 14.5333 5.6 14.5333 4.8 14.4667C2.6 14.4 1.6 13.3333 1.53333 11.2C1.46667 10.3333 1.46667 10.1333 1.46667 8C1.46667 5.86667 1.46667 5.6 1.53333 4.8C1.6 2.66667 2.66667 1.6 4.8 1.53333C5.6 1.46667 5.86667 1.46667 8 1.46667ZM8 0C5.8 0 5.53333 0 4.73333 0.0666667C1.8 0.2 0.2 1.8 0.0666667 4.73333C0 5.53333 0 5.8 0 8C0 10.2 0 10.4667 0.0666667 11.2667C0.2 14.2 1.8 15.8 4.73333 15.9333C5.53333 16 5.8 16 8 16C10.2 16 10.4667 16 11.2667 15.9333C14.2 15.8 15.8 14.2 15.9333 11.2667C16 10.4667 16 10.2 16 8C16 5.8 16 5.53333 15.9333 4.73333C15.8 1.8 14.2 0.2 11.2667 0.0666667C10.4667 0 10.2 0 8 0ZM8 3.86667C5.73333 3.86667 3.86667 5.73333 3.86667 8C3.86667 10.2667 5.73333 12.1333 8 12.1333C10.2667 12.1333 12.1333 10.2667 12.1333 8C12.1333 5.73333 10.2667 3.86667 8 3.86667ZM8 10.6667C6.53333 10.6667 5.33333 9.46667 5.33333 8C5.33333 6.53333 6.53333 5.33333 8 5.33333C9.46667 5.33333 10.6667 6.53333 10.6667 8C10.6667 9.46667 9.46667 10.6667 8 10.6667ZM12.2667 2.8C11.7333 2.8 11.3333 3.2 11.3333 3.73333C11.3333 4.26667 11.7333 4.66667 12.2667 4.66667C12.8 4.66667 13.2 4.26667 13.2 3.73333C13.2 3.2 12.8 2.8 12.2667 2.8Z" fill="#46A358" fill-opacity="0.6"/>
    </symbol>
    <symbol id="icon-social-linkidin">
        <path d="M3.33333 1.66667C3.33333 2.6 2.6 3.33333 1.66667 3.33333C0.733333 3.33333 0 2.6 0 1.66667C0 0.733333 0.733333 0 1.66667 0C2.6 0 3.33333 0.733333 3.33333 1.66667ZM3.33333 4.66667H0V15.3333H3.33333V4.66667ZM8.66667 4.66667H5.33333V15.3333H8.66667V9.73333C8.66667 6.6 12.6667 6.33333 12.6667 9.73333V15.3333H16V8.6C16 3.33333 10.0667 3.53333 8.66667 6.13333V4.66667Z" fill="#46A358" fill-opacity="0.6"/>
    </symbol>
    <symbol id="icon-social-twitter">
        <path d="M5.03186 13.0036C11.0699 13.0036 14.3718 8.00118 14.3718 3.66357C14.3718 3.52144 14.3689 3.38005 14.3624 3.2392C15.0033 2.77588 15.5605 2.19756 16 1.53953C15.4118 1.80085 14.7789 1.97682 14.1149 2.05616C14.7926 1.64981 15.313 1.0067 15.5585 0.24021C14.9241 0.616357 14.2217 0.889688 13.4742 1.03709C12.8749 0.399076 12.0218 0 11.0779 0C9.26483 0 7.79464 1.4702 7.79464 3.28233C7.79464 3.54001 7.82357 3.79041 7.87962 4.0308C5.1516 3.89377 2.73239 2.58735 1.11352 0.601253C0.831273 1.08622 0.668767 1.64999 0.668767 2.25106C0.668767 3.38988 1.24837 4.3953 2.12968 4.98363C1.59121 4.96707 1.08531 4.81894 0.642926 4.57291C0.642198 4.58656 0.642198 4.60039 0.642198 4.61476C0.642198 6.2047 1.77392 7.53204 3.27578 7.83285C3.00008 7.90801 2.71001 7.94841 2.41047 7.94841C2.19901 7.94841 1.99338 7.9273 1.79339 7.88927C2.21121 9.19332 3.42318 10.1425 4.86007 10.1693C3.73636 11.0499 2.32094 11.5745 0.783049 11.5745C0.518272 11.5745 0.256952 11.5594 0 11.529C1.45273 12.46 3.17769 13.0036 5.03186 13.0036Z" fill="#46A358" fill-opacity="0.6"/>
    </symbol>
    <symbol id="icon-social-youtube">
        <path fill-rule="evenodd" clip-rule="evenodd" d="M15.1653 4.42995L15.168 4.43062C15.168 4.43062 15.1676 4.4305 15.1667 4.4303C15.1663 4.4302 15.1658 4.43008 15.1653 4.42995ZM4.32444 4.35686C6.91762 4.19575 11.7483 4.19575 14.3415 4.35686L14.3422 4.3644C14.4047 4.99716 14.4299 5.84143 14.4299 7.01915C14.4299 8.18238 14.4053 9.02689 14.3441 9.66498C11.6962 9.77026 6.97129 9.77027 4.32282 9.66502C4.261 9.03324 4.23602 8.19137 4.23602 7.01915C4.23602 5.84143 4.26123 4.99716 4.32369 4.3644L4.32444 4.35686ZM15.2422 9.61106C15.2422 9.61109 15.2405 9.61148 15.237 9.61215L15.2422 9.61106ZM3.49794 9.60768L3.50063 9.60836C3.49881 9.60793 3.49792 9.60769 3.49794 9.60768ZM0 7.01915C0 11.8412 0.388873 13.63 3.42208 13.8633C6.22196 14.0189 12.4439 14.0189 15.2438 13.8633C18.277 13.7078 18.6659 11.8412 18.6659 7.01915C18.6659 2.19713 18.277 0.408316 15.2438 0.174993C12.4439 -0.0583309 6.22196 -0.0583309 3.42208 0.174993C0.388873 0.408316 0 2.19713 0 7.01915ZM3.49794 4.43062C3.49792 4.43061 3.49884 4.43037 3.50073 4.42992L3.49794 4.43062ZM9.78228 8.73886C8.50388 9.37806 6.99973 8.44845 6.99973 7.01915C6.99973 5.58986 8.50388 4.66025 9.78228 5.29945C11.1994 6.008 11.1994 8.0303 9.78228 8.73886Z" fill="#46A358" fill-opacity="0.6"/>
    </symbol>
    <!-- REGISTRATION ICONS -->
    <symbol id="cross-icon">
        <path fill-rule="evenodd" clip-rule="evenodd" d="M3.17007 3.17007C3.39682 2.94331 3.76447 2.94331 3.99122 3.17007L9 8.17884L14.0088 3.17007C14.2355 2.94331 14.6032 2.94331 14.8299 3.17007C15.0567 3.39682 15.0567 3.76447 14.8299 3.99122L9.82116 9L14.8299 14.0088C15.0567 14.2355 15.0567 14.6032 14.8299 14.8299C14.6032 15.0567 14.2355 15.0567 14.0088 14.8299L9 9.82116L3.99122 14.8299C3.76447 15.0567 3.39682 15.0567 3.17007 14.8299C2.94331 14.6032 2.94331 14.2355 3.17007 14.0088L8.17884 9L3.17007 3.99122C2.94331 3.76447 2.94331 3.39682 3.17007 3.17007Z" fill="#46A358"/>
    </symbol>
    <symbol id="icon-hide-password">
        <path d="M5.35 14.7748C3.49166 13.5582 2.29166 11.7248 2.29166 10.1165C2.29166 7.38317 5.74166 4.03316 10 4.03316C11.7417 4.03316 13.3583 4.5915 14.6583 5.45816" stroke="#727272" stroke-width="1.5" stroke-linecap="round" stroke-linejoin="round"/>
        <path d="M16.5414 7.17516C17.2839 8.11683 17.7164 9.1585 17.7164 10.1168C17.7164 12.8502 14.2581 16.2002 9.99975 16.2002C9.24142 16.2002 8.50058 16.0918 7.80808 15.9002" stroke="#727272" stroke-width="1.5" stroke-linecap="round" stroke-linejoin="round"/>
        <path d="M8.13808 11.9725C7.64225 11.4817 7.36475 10.8125 7.36725 10.115C7.36392 8.66083 8.54058 7.47917 9.99558 7.47667C10.6956 7.475 11.3673 7.7525 11.8623 8.2475" stroke="#727272" stroke-width="1.5" stroke-linecap="round" stroke-linejoin="round"/>
        <path d="M12.5912 10.5826C12.3962 11.6592 11.5537 12.5034 10.4771 12.7009" stroke="#727272" stroke-width="1.5" stroke-linecap="round" stroke-linejoin="round"/>
        <path d="M16.5764 3.54158L3.43141 16.6866" stroke="#727272" stroke-width="1.5" stroke-linecap="round" stroke-linejoin="round"/>
    </symbol>
    <symbol id="icon-register-with-google">
        <g clip-path="url(#clip0_2_2044)">
        <path d="M16.4336 17.6055C14.6992 19.0703 12.4492 20 9.99999 20C6.35545 20 3.1562 17.9922 1.42186 15.0625L2.07116 12.0695L4.9492 11.5352C5.61717 13.6914 7.63276 15.2734 9.99999 15.2734C11.1484 15.2734 12.2148 14.9102 13.0937 14.2656L15.8594 14.6875L16.4336 17.6055Z" fill="#59C36A"/>
        <path d="M16.4336 17.6055L15.8594 14.6875L13.0937 14.2656C12.2148 14.9102 11.1484 15.2735 10 15.2735V20C12.4493 20 14.6992 19.0703 16.4336 17.6055Z" fill="#00A66C"/>
        <path d="M4.72656 10C4.72656 10.539 4.8086 11.0546 4.94922 11.5352L1.42188 15.0625C0.542969 13.5859 0 11.8515 0 10C0 8.1484 0.542969 6.41406 1.42188 4.9375L4.25285 5.42473L4.94922 8.46484C4.8086 8.94527 4.72656 9.4609 4.72656 10Z" fill="#FFDA2D"/>
        <path d="M20 10C20 13.0468 18.5899 15.7773 16.4336 17.6055L13.0938 14.2656C13.7734 13.7734 14.3477 13.1171 14.7227 12.3437H10C9.67184 12.3437 9.41406 12.0859 9.41406 11.7578V8.24219C9.41406 7.91402 9.67184 7.65625 10 7.65625H19.25C19.5312 7.65625 19.7773 7.85543 19.8242 8.13668C19.9414 8.74609 20 9.37887 20 10Z" fill="#4086F4"/>
        <path d="M14.7227 12.3437C14.3477 13.1171 13.7734 13.7734 13.0938 14.2656L16.4336 17.6055C18.5899 15.7773 20 13.0469 20 10C20 9.37887 19.9414 8.74609 19.8242 8.13668C19.7773 7.85543 19.5312 7.65625 19.25 7.65625H10V12.3437H14.7227Z" fill="#4175DF"/>
        <path d="M16.5976 2.79293C16.6094 2.95699 16.5391 3.10937 16.4336 3.22652L13.9258 5.72262C13.7266 5.93355 13.3985 5.95699 13.1641 5.78121C12.2382 5.08984 11.1484 4.72656 9.99999 4.72656C7.63276 4.72656 5.61717 6.30855 4.9492 8.46484L1.42186 4.9375C3.1562 2.00781 6.35546 0 9.99999 0C12.332 0 14.6055 0.859375 16.3867 2.35934C16.5156 2.46484 16.5859 2.62887 16.5976 2.79293Z" fill="#FF641A"/>
        <path d="M13.1641 5.78121C13.3984 5.95703 13.7265 5.93355 13.9257 5.72262L16.4336 3.22652C16.5391 3.10938 16.6094 2.95703 16.5976 2.79293C16.5859 2.62883 16.5156 2.46484 16.3867 2.35934C14.6055 0.859375 12.332 0 10 0V4.72656C11.1484 4.72656 12.2382 5.08984 13.1641 5.78121Z" fill="#F03800"/>
        </g>
        <defs>
        <clipPath id="clip0_2_2044">
        <rect width="20" height="20" fill="white"/>
        </clipPath>
        </defs>
    </symbol>
    <symbol id="icon-register-with-facebook">
        <path d="M8.33089 3.32083H10.1567V0.140833C9.84172 0.0975 8.75839 0 7.49673 0C1.72006 0 3.29172 6.54167 3.06172 7.5H0.155891V11.055H3.06089V20H6.62256V11.0558H9.41006L9.85256 7.50083H6.62173C6.77839 5.1475 5.98756 3.32083 8.33089 3.32083Z" fill="#3B5999"/>
    </symbol>
</svg>